<mxfile host="65bd71144e" pages="2">
    <diagram name="IA e subcampos" id="SoBlqaXpW2YxNoorz7gl">
        <mxGraphModel dx="1477" dy="903" grid="1" gridSize="10" guides="1" tooltips="1" connect="1" arrows="1" fold="1" page="1" pageScale="1" pageWidth="827" pageHeight="1169" math="0" shadow="0">
            <root>
                <mxCell id="0"/>
                <mxCell id="1" parent="0"/>
                <mxCell id="79R0XHFhG9Woya2YguVs-2" value="" style="ellipse;whiteSpace=wrap;html=1;aspect=fixed;strokeWidth=5;" parent="1" vertex="1">
                    <mxGeometry x="140" y="150" width="450" height="450" as="geometry"/>
                </mxCell>
                <mxCell id="79R0XHFhG9Woya2YguVs-3" value="Data Science" style="text;html=1;align=center;verticalAlign=middle;whiteSpace=wrap;rounded=0;fontSize=32;fontStyle=1;fontFamily=Helvetica;fontColor=#02c797;" parent="1" vertex="1">
                    <mxGeometry x="335" y="180" width="60" height="30" as="geometry"/>
                </mxCell>
                <mxCell id="79R0XHFhG9Woya2YguVs-6" value="" style="ellipse;whiteSpace=wrap;html=1;aspect=fixed;strokeWidth=5;fillColor=#FAFAFA;" parent="1" vertex="1">
                    <mxGeometry x="191.96" y="246.07" width="346.07" height="346.07" as="geometry"/>
                </mxCell>
                <mxCell id="79R0XHFhG9Woya2YguVs-7" value="Data Analysis" style="text;html=1;align=center;verticalAlign=middle;whiteSpace=wrap;rounded=0;fontSize=24;fontStyle=1;fontFamily=Helvetica;fontColor=#02c797;" parent="1" vertex="1">
                    <mxGeometry x="328.3354402515723" y="269.99666666666667" width="66.66666666666664" height="26.300000000000004" as="geometry"/>
                </mxCell>
            </root>
        </mxGraphModel>
    </diagram>
    <diagram name="data science e subcampos" id="iQEMhSZOO5Wik80vWjcT">
        <mxGraphModel dx="350" dy="903" grid="1" gridSize="10" guides="1" tooltips="1" connect="1" arrows="1" fold="1" page="1" pageScale="1" pageWidth="827" pageHeight="1169" math="0" shadow="0">
            <root>
                <mxCell id="PqJ09P0uPltZsNWlfxu0-0"/>
                <mxCell id="PqJ09P0uPltZsNWlfxu0-1" parent="PqJ09P0uPltZsNWlfxu0-0"/>
                <mxCell id="PqJ09P0uPltZsNWlfxu0-2" value="" style="ellipse;whiteSpace=wrap;html=1;aspect=fixed;strokeWidth=5;" parent="PqJ09P0uPltZsNWlfxu0-1" vertex="1">
                    <mxGeometry x="140" y="150" width="450" height="450" as="geometry"/>
                </mxCell>
                <mxCell id="PqJ09P0uPltZsNWlfxu0-3" value="Data Science" style="text;html=1;align=center;verticalAlign=middle;whiteSpace=wrap;rounded=0;fontSize=32;fontStyle=1;fontFamily=Helvetica;fontColor=#02c797;" parent="PqJ09P0uPltZsNWlfxu0-1" vertex="1">
                    <mxGeometry x="335" y="180" width="60" height="30" as="geometry"/>
                </mxCell>
                <mxCell id="PqJ09P0uPltZsNWlfxu0-4" value="" style="ellipse;whiteSpace=wrap;html=1;aspect=fixed;strokeWidth=5;fillColor=#FAFAFA;" parent="PqJ09P0uPltZsNWlfxu0-1" vertex="1">
                    <mxGeometry x="186.96" y="243.93" width="356.07" height="356.07" as="geometry"/>
                </mxCell>
                <mxCell id="PqJ09P0uPltZsNWlfxu0-5" value="Data Analysis" style="text;html=1;align=center;verticalAlign=middle;whiteSpace=wrap;rounded=0;fontSize=24;fontStyle=1;fontFamily=Helvetica;fontColor=#02c797;" parent="PqJ09P0uPltZsNWlfxu0-1" vertex="1">
                    <mxGeometry x="327.74" y="240" width="66.67" height="80" as="geometry"/>
                </mxCell>
            </root>
        </mxGraphModel>
    </diagram>
</mxfile>
